<svg xmlns="http://www.w3.org/2000/svg" xmlns:xlink="http://www.w3.org/1999/xlink" width="55" height="44" viewBox="0 0 55 44"><defs><path id="btj5a" d="M1007.54 942.276a3.155 3.155 0 0 1-2.697-4.791l7.235-11.955a3.155 3.155 0 0 1 5.24-.238l2.938 3.984 6.426-10.754a3.153 3.153 0 0 1 5.224-.288l5.572 7.349 14.882-24.35a3.156 3.156 0 1 1 5.385 3.292l-17.294 28.297a3.151 3.151 0 0 1-2.535 1.506 3.164 3.164 0 0 1-2.673-1.245l-5.542-7.31-6.462 10.813a3.154 3.154 0 0 1-2.556 1.533 3.148 3.148 0 0 1-2.692-1.279l-2.955-4.008-4.794 7.921a3.154 3.154 0 0 1-2.703 1.523z"/></defs><g><g transform="translate(-1004 -899)"><use xlink:href="#btj5a"/></g></g></svg>