<svg xmlns="http://www.w3.org/2000/svg" xmlns:xlink="http://www.w3.org/1999/xlink" width="52" height="48" viewBox="0 0 52 48"><defs><path id="kvqya" d="M391.74 925.707c-10.687 11.907-20.131 20.347-20.225 20.43a2.296 2.296 0 0 1-3.06 0c-.093-.083-9.537-8.523-20.224-20.43-4.415-4.916-5.534-11.246-2.995-16.93 2.456-5.5 7.673-9.054 13.288-9.054 5.689 0 9.342 2.528 11.461 5.226 2.12-2.698 5.773-5.226 11.462-5.226 5.615 0 10.831 3.554 13.288 9.053 2.539 5.685 1.42 12.015-2.995 16.93zm-1.203-15.058c-1.692-3.788-5.344-6.333-9.09-6.333-7.645 0-9.168 5.861-9.229 6.11a2.298 2.298 0 0 1-4.465 0c-.16-.608-1.822-6.11-9.23-6.11-3.745 0-7.398 2.545-9.09 6.333-1.804 4.04-.995 8.41 2.22 11.99 7.995 8.908 15.27 15.833 18.332 18.671 3.062-2.838 10.338-9.763 18.334-18.67 3.214-3.58 4.023-7.951 2.218-11.991zm-1.93 4.906a2.297 2.297 0 0 1-4.586.305c-.269-4.042-3.098-4.473-3.218-4.49a2.297 2.297 0 1 1 .62-4.55c2.305.313 6.773 2.543 7.185 8.735zm-3.45 4.114a2.31 2.31 0 0 1 .672 1.625 2.33 2.33 0 0 1-.672 1.624 2.336 2.336 0 0 1-1.626.673 2.336 2.336 0 0 1-1.626-.673 2.33 2.33 0 0 1-.673-1.624c0-.61.247-1.201.673-1.625a2.338 2.338 0 0 1 1.626-.672c.603 0 1.195.247 1.626.672z"/></defs><g><g transform="translate(-344 -899)"><use xlink:href="#kvqya"/></g></g></svg>