<svg xmlns="http://www.w3.org/2000/svg" xmlns:xlink="http://www.w3.org/1999/xlink" width="40" height="52" viewBox="0 0 40 52"><defs><path id="fceea" d="M719.455 903.841v42.437c0 2.498-1.688 4.112-4.3 4.112h-30.48c-2.614 0-4.301-1.614-4.301-4.112V903.84c0-2.498 1.687-4.112 4.3-4.112h30.48c2.613 0 4.301 1.614 4.301 4.112zm-3.285 0c0-.46 0-.822-1.015-.822h-30.48c-1.017 0-1.017.363-1.017.822v42.437c0 .46 0 .822 1.016.822h30.48c1.016 0 1.016-.362 1.016-.822zm-2.112 2.92v33.12c0 .606-.49 1.097-1.095 1.097h-26.097a1.096 1.096 0 0 1-1.095-1.097v-33.12c0-.605.49-1.097 1.095-1.097h26.097c.604 0 1.095.491 1.095 1.096zm-2.19 1.096H687.96v30.928h23.907zm-10.6 34.886c.356.356.564.855.564 1.36a1.93 1.93 0 0 1-1.916 1.92 1.935 1.935 0 0 1-1.358-.565 1.931 1.931 0 0 1 0-2.715c.712-.712 1.998-.712 2.71 0z"/></defs><g><g transform="translate(-680 -899)"><use xlink:href="#fceea"/></g></g></svg>